<?xml version="1.0" encoding="UTF-8"?>
<svg width="55px" height="55px" viewBox="0 0 55 55" version="1.1" xmlns="http://www.w3.org/2000/svg" xmlns:xlink="http://www.w3.org/1999/xlink">
    <!-- Generator: Sketch 60.1 (88133) - https://sketch.com -->
    <title>Group 10</title>
    <desc>Created with Sketch.</desc>
    <g id="Page-1" stroke="none" stroke-width="1" fill="none" fill-rule="evenodd">
        <g id="lawhq-homepage-copy" transform="translate(-313.000000, -1728.000000)">
            <g id="Group-11" transform="translate(313.000000, 1728.000000)">
                <g id="Group-10">
                    <rect id="Rectangle" fill="#DEF6EC" x="0" y="0" width="55" height="55" rx="10"></rect>
                    <g id="call" transform="translate(15.000000, 15.000000)" fill="#08B175" fill-rule="nonzero">
                        <path d="M22.9939505,16.4096354 C21.4633556,16.4096354 19.9604949,16.1702474 18.536345,15.6996094 C17.8384952,15.4615885 16.9806198,15.6799479 16.5547095,16.1173828 L13.7437142,18.239388 C10.4837618,16.4992188 8.47569407,14.4917969 6.75929229,11.2563151 L8.81885724,8.51855469 C9.35394699,7.98417969 9.54587358,7.20358073 9.31592626,6.47115885 C8.84327124,5.03951823 8.6031677,3.53736979 8.6031677,2.00611979 C8.6032328,0.899934896 7.70330025,0 6.59718334,0 L2.00604946,0 C0.899932552,0 0,0.899934896 0,2.00605469 C0,14.6850911 10.3149471,25 22.9939505,25 C24.1000674,25 25,24.1000651 25,22.9939453 L25,18.415625 C25,17.3095703 24.1000023,16.4096354 22.9939505,16.4096354 Z" id="Path"></path>
                    </g>
                </g>
            </g>
        </g>
    </g>
</svg>