<?xml version="1.0" encoding="UTF-8"?>
<svg width="55px" height="55px" viewBox="0 0 55 55" version="1.1" xmlns="http://www.w3.org/2000/svg" xmlns:xlink="http://www.w3.org/1999/xlink">
    <!-- Generator: Sketch 60.1 (88133) - https://sketch.com -->
    <title>Group 6</title>
    <desc>Created with Sketch.</desc>
    <g id="Page-1" stroke="none" stroke-width="1" fill="none" fill-rule="evenodd">
        <g id="lawhq-homepage" transform="translate(-857.000000, -1074.000000)">
            <g id="Group-7" transform="translate(304.000000, 1017.000000)">
                <g id="Group-6" transform="translate(553.000000, 57.000000)">
                    <rect id="Rectangle" fill="#E6FFF4" x="0" y="0" width="55" height="55" rx="10"></rect>
                    <g id="no-money" transform="translate(10.000000, 10.000000)" fill-rule="nonzero">
                        <polygon id="Path" fill="#74DAB6" transform="translate(17.499091, 17.518652) rotate(45.526378) translate(-17.499091, -17.518652) " points="7.76069413 12.1443108 27.2374876 12.1443108 27.2374876 22.892993 7.76069413 22.892993"></polygon>
                        <path d="M21.3302768,25.1086957 L24.3316859,22.0228913 C23.8551256,21.5144516 23.8623513,20.6977679 24.3478261,20.1986612 L15.4118586,10.6687226 C15.1787702,10.9084943 14.864249,11.0414602 14.5375169,11.0383566 C14.2107848,11.0352529 13.8986191,10.896334 13.6697232,10.6521739 L10.6683141,13.7379783 C11.1448744,14.2464179 11.1376487,15.0631016 10.6521739,15.5622084 L19.5881414,25.092147 C19.8212298,24.8523753 20.135751,24.7194093 20.4624831,24.722513 C20.7892152,24.7256167 21.1013809,24.8645356 21.3302768,25.1086957 L21.3302768,25.1086957 Z" id="Path" fill="#F0FFFA"></path>
                        <path d="M17.5,0 C7.83501688,0 0,7.83501688 0,17.5 C0,27.1649831 7.83501688,35 17.5,35 C27.1649831,35 35,27.1649831 35,17.5 C35,7.83501688 27.1649831,0 17.5,0 Z M3.56175327,17.5 C3.56028353,12.1858334 6.58153053,7.33348797 11.3510111,4.98989593 C16.1204917,2.6463039 21.8077219,3.21954234 26.0135784,6.46779412 L6.46779412,26.0135784 C4.5802764,23.5773305 3.55780921,20.5818844 3.56175327,17.5 L3.56175327,17.5 Z M17.5,31.4382467 C14.4181156,31.4421908 11.4226695,30.4197236 8.98642157,28.5322059 L28.5322059,8.98642157 C31.7804577,13.1922781 32.3536961,18.8795083 30.0101041,23.6489889 C27.666512,28.4184695 22.8141666,31.4397165 17.5,31.4382467 L17.5,31.4382467 Z" id="Shape" fill="#08B175"></path>
                    </g>
                </g>
            </g>
        </g>
    </g>
</svg>