<?xml version="1.0" encoding="UTF-8"?>
<svg width="55px" height="55px" viewBox="0 0 55 55" version="1.1" xmlns="http://www.w3.org/2000/svg" xmlns:xlink="http://www.w3.org/1999/xlink">
    <!-- Generator: Sketch 60.1 (88133) - https://sketch.com -->
    <title>Group 10</title>
    <desc>Created with Sketch.</desc>
    <g id="Page-1" stroke="none" stroke-width="1" fill="none" fill-rule="evenodd">
        <g id="lawhq-homepage" transform="translate(-857.000000, -2042.000000)">
            <g id="Group-11" transform="translate(857.000000, 2042.000000)">
                <g id="Group-10">
                    <rect id="Rectangle" fill="#E6FFF4" x="0" y="0" width="55" height="55" rx="10"></rect>
                    <g id="legal-hammer-symbol" transform="translate(9.000000, 12.000000)" fill-rule="nonzero">
                        <path d="M15.1667032,27.4071026 C15.1667032,26.629943 14.5416914,26 13.7708614,26 L3.22921465,26 C2.45838458,26 1.83337284,26.6300196 1.83337284,27.4071026 C1.83337284,27.6519527 1.8955623,27.8821654 2.00481201,28.0827203 L0,28.0827203 L0,31 L17,31 L17,28.0827203 L14.995264,28.0827203 C15.1044377,27.8820888 15.1667032,27.6519527 15.1667032,27.4071026 Z" id="Path" fill="#08B175"></path>
                        <path d="M13.581867,3.31935488 L22.3868073,8.83841137 C23.071545,9.18285165 23.922225,8.96289355 24.3424169,8.30954753 L24.7649386,7.65301157 C25.2112093,6.95908643 25.0032553,6.03949097 24.3003301,5.59883293 L15.738366,0.232077948 C15.035516,-0.208505907 14.103894,-0.00323641308 13.6574729,0.690688722 L13.2349512,1.34729888 C12.8148345,2.00057071 12.9747645,2.85406747 13.581867,3.31935488 Z" id="Path" fill="#74DAB6"></path>
                        <path d="M37.995945,24.8088881 L37.9896107,24.6775964 L37.9783324,24.553644 C37.9725387,24.4689085 37.9601789,24.3935882 37.9493641,24.3161179 C37.9059504,24.0064592 37.831869,23.7429862 37.7413336,23.5046446 C37.5577137,23.0312235 37.2980811,22.6727103 36.9791988,22.404122 C36.8998645,22.3364375 36.8149683,22.277056 36.7306128,22.2167107 L36.4779326,22.0356008 C36.3101486,21.9137982 36.1390429,21.7970368 35.969096,21.6786445 C35.799458,21.5595849 35.6277343,21.4437131 35.4558562,21.3280637 C35.2845188,21.2115988 35.1124861,21.0963943 34.9389857,20.9832654 C34.5938389,20.7542648 34.2450614,20.5309725 33.895357,20.3084215 L33.3691394,19.9774863 L32.8399864,19.6509251 C32.4861878,19.4351203 32.1318484,19.2199828 31.7751143,19.0084037 C31.418921,18.7960092 31.0613371,18.5856162 30.7016676,18.3785593 L29.6218093,17.7585748 L28.5347668,17.1491914 L27.4417762,16.5490007 L26.3433782,15.9568906 L25.2397272,15.3725646 L24.1309007,14.7963193 C23.7599528,14.6060909 23.3893912,14.4154918 23.0159714,14.22897 C22.6434786,14.0414846 22.2712176,13.8530354 21.8960211,13.6694049 L21.5562817,14.1830068 L19.8436799,13.4083783 L21.7579778,10.5152159 L12.7078394,5 L8,12.1149584 L17.0502156,17.6301743 L18.9645135,14.7370119 L20.423508,15.8951368 L20.0836914,16.4088129 C20.4165557,16.6566436 20.7524326,16.8995073 21.0877688,17.1434831 C21.4223326,17.3884967 21.7596773,17.6292847 22.0967902,17.8705916 L23.111837,18.5886557 L24.1323684,19.2986392 L25.1578437,20.0009869 L26.1888037,20.6949574 L27.2256346,21.3801059 L28.2695723,22.0543567 C28.6179635,22.2786869 28.968286,22.4998293 29.3203079,22.718896 C29.6715574,22.9388522 30.025047,23.1549535 30.3791546,23.3706841 L30.9120156,23.6912405 L31.4478119,24.0074971 C31.8064772,24.2164074 32.1653743,24.4245021 32.5281338,24.6270369 C32.7086638,24.7295645 32.8903525,24.8300905 33.0731227,24.9293562 C33.255275,25.0293633 33.4376589,25.1292963 33.6220514,25.2258932 C33.8061348,25.3231573 33.9889823,25.4220523 34.1750742,25.5159063 L34.4534009,25.6583922 C34.5461765,25.7058381 34.6383341,25.7544702 34.7358991,25.7945768 C35.1249231,25.9572273 35.5733513,26.0303237 36.0977921,25.9883637 C36.3611327,25.9657527 36.6411589,25.9180103 36.9516983,25.8240822 C37.0294104,25.8005817 37.1055775,25.7791569 37.1881563,25.7482429 L37.3097456,25.7052451 L37.4363561,25.6548338 C37.6051443,25.5873716 37.7857516,25.5018949 37.981654,25.393733 C38.0003482,25.1774835 38.0040561,24.9842897 37.995945,24.8088881 Z" id="Path" fill="#08B175"></path>
                        <path d="M5.69973577,17.4012585 L14.2615605,22.767948 C14.9645617,23.2084644 15.8961849,23.003266 16.3425314,22.3094043 L16.7649785,21.6527098 C17.185246,20.9992795 17.0251656,20.145918 16.4181374,19.6806234 L7.61326098,14.1615559 C6.92852243,13.8171844 6.07784132,14.0370718 5.65757373,14.690502 L5.2352018,15.3470481 C4.78870507,16.040984 4.99673452,16.9606678 5.69973577,17.4012585 Z" id="Path" fill="#74DAB6"></path>
                    </g>
                </g>
            </g>
        </g>
    </g>
</svg>