<?xml version="1.0" encoding="UTF-8"?>
<svg width="55px" height="55px" viewBox="0 0 55 55" version="1.1" xmlns="http://www.w3.org/2000/svg" xmlns:xlink="http://www.w3.org/1999/xlink">
    <!-- Generator: Sketch 60.1 (88133) - https://sketch.com -->
    <title>Group 10</title>
    <desc>Created with Sketch.</desc>
    <g id="Page-1" stroke="none" stroke-width="1" fill="none" fill-rule="evenodd">
        <g id="lawhq-homepage-copy" transform="translate(-901.000000, -2478.000000)">
            <g id="Group-26" transform="translate(901.000000, 2478.000000)">
                <g id="Group-10">
                    <rect id="Rectangle" fill="#D1EDFF" x="0" y="0" width="55" height="55" rx="10"></rect>
                    <g id="sms" transform="translate(16.000000, 15.000000)" fill="#0FA4FF" fill-rule="nonzero">
                        <path d="M22.4999824,0 L2.50001758,0 C1.11872959,0 0.012480459,1.11872959 0.012480459,2.50001758 L0,25 L4.99997656,20.0000234 L22.4999824,20.0000234 C23.8812118,20.0000234 25,18.8812938 25,17.5 L25,2.50001758 C25,1.11872959 23.8812118,0 22.4999824,0 Z M8.74997363,11.2499912 L6.24995605,11.2499912 L6.24995605,8.74997363 L8.74997363,8.74997363 L8.74997363,11.2499912 Z M13.7500088,11.2499912 L11.2499912,11.2499912 L11.2499912,8.74997363 L13.7500088,8.74997363 L13.7500088,11.2499912 Z M18.7499854,11.2499912 L16.2499678,11.2499912 L16.2499678,8.74997363 L18.7499854,8.74997363 L18.7499854,11.2499912 Z" id="Shape"></path>
                    </g>
                </g>
            </g>
        </g>
    </g>
</svg>