<?xml version="1.0" encoding="UTF-8"?>
<svg width="55px" height="55px" viewBox="0 0 55 55" version="1.1" xmlns="http://www.w3.org/2000/svg" xmlns:xlink="http://www.w3.org/1999/xlink">
    <!-- Generator: Sketch 60.1 (88133) - https://sketch.com -->
    <title>Group 9</title>
    <desc>Created with Sketch.</desc>
    <g id="Page-1" stroke="none" stroke-width="1" fill="none" fill-rule="evenodd">
        <g id="lawhq-homepage" transform="translate(-304.000000, -1564.000000)">
            <g id="Group-12" transform="translate(304.000000, 1564.000000)">
                <g id="Group-9">
                    <rect id="Rectangle" fill="#E6FFF4" x="0" y="0" width="55" height="55" rx="10"></rect>
                    <g id="give-money" transform="translate(10.000000, 12.000000)" fill-rule="nonzero">
                        <g id="Group" transform="translate(17.000000, 0.000000)">
                            <path d="M9.94892553,8.75528042 C8.87744681,8.32803175 8.5678883,8.06967196 8.5678883,7.6031164 C8.5678883,7.22975132 8.85218085,6.79355556 9.65371809,6.79355556 C10.3626809,6.79355556 10.9064043,7.07161905 10.9112553,7.07403175 C10.9684574,7.10439153 11.032633,7.12057672 11.0962021,7.12057672 C11.2513351,7.12057672 11.3885798,7.02718519 11.4454787,6.88262434 L11.6402287,6.38741799 C11.7080426,6.20696825 11.6051596,6.04974074 11.4739787,5.99334392 C11.037484,5.80434921 10.1844043,5.65807937 10.1757128,5.65657143 C10.1619681,5.65415873 10.1141649,5.64400529 10.1141649,5.5884127 L10.1114362,4.87003175 C10.1114362,4.65369312 9.92982447,4.47756614 9.70687766,4.47756614 L9.3575,4.47756614 C9.13475532,4.47756614 8.95324468,4.65359259 8.95324468,4.87013228 L8.95415426,5.62540741 C8.95415426,5.68331217 8.89109043,5.70844444 8.86804787,5.71377249 C7.79121277,5.96891534 7.11822872,6.75354497 7.11822872,7.74325397 C7.11822872,8.97704762 8.14352128,9.53458201 9.25057447,9.95308466 C10.1355904,10.2987037 10.4965904,10.6491481 10.4965904,11.1631534 C10.4965904,11.7224974 9.98530851,12.1131534 9.25279787,12.1131534 C8.62731383,12.1131534 7.78080319,11.7187778 7.77241489,11.7147566 C7.71824468,11.6892222 7.66084043,11.6763545 7.60181915,11.6763545 C7.4407234,11.6763545 7.30044681,11.7732646 7.24435638,11.9233545 L7.05839894,12.4241905 C6.99230319,12.6111746 7.09407447,12.7629735 7.22434574,12.8305291 C7.74421809,13.0998466 8.75020745,13.2576772 8.79497872,13.2646138 C8.80700532,13.2663228 8.86825,13.2877354 8.86825,13.3434286 L8.86825,14.0953862 C8.86825,14.3117249 9.0498617,14.4878519 9.27290957,14.4878519 L9.63390957,14.4878519 C9.85705851,14.4878519 10.0386702,14.3118254 10.0386702,14.0953862 L10.0386702,13.3040212 C10.0386702,13.2300317 10.0935479,13.2234974 10.104867,13.2207831 C11.2520426,12.9644339 11.9586809,12.1295397 11.9586809,11.0812222 C11.9583777,10.004455 11.35725,9.30869312 9.94892553,8.75528042 Z" id="Path" fill="#1AB57E"></path>
                            <path d="M9.49787766,0.0511693122 C4.26115426,0.0511693122 0.0162712766,4.27389418 0.0162712766,9.48260847 C0.0162712766,14.6914233 4.26115426,18.9142487 9.49787766,18.9142487 C14.7343989,18.9142487 18.979383,14.6914233 18.979383,9.48260847 C18.979383,4.27389418 14.7343989,0.0511693122 9.49787766,0.0511693122 Z M9.49787766,16.7284444 C5.47472872,16.7284444 2.21360106,13.4842698 2.21360106,9.48270899 C2.21360106,5.48114815 5.47472872,2.23707407 9.49787766,2.23707407 C13.5208245,2.23707407 16.7818511,5.48114815 16.7818511,9.48270899 C16.7818511,13.4842698 13.5208245,16.7284444 9.49787766,16.7284444 Z" id="Shape" fill="#74DAB6"></path>
                        </g>
                        <g id="Group" transform="translate(0.000000, 20.000000)" fill="#08B175">
                            <path d="M34.0461634,3.53254386 C32.0230648,4.59500877 29.2405183,5.57738596 26.4655775,5.99152632 C23.9966873,6.35992982 19.3519775,5.4714386 19.3519775,4.42209649 C19.3519775,4.02445614 23.4255549,5.40186842 25.8896789,4.77631579 C27.7792225,4.29665789 27.5109972,2.61481579 26.4832225,2.39298246 C25.461431,2.17230702 19.4750873,0.0855877193 16.9180732,0.0136052632 C15.7135437,-0.0202631579 12.7397408,0.412210526 11.3007549,0.635201754 C10.8078085,0.711526316 10.4987155,0.703131579 10.4678873,1.15200877 C10.3246986,3.23814912 10.0424789,7.5042193 9.88853684,9.73258772 C9.88539718,9.77967544 9.95415211,10.4128509 10.5032789,9.96725439 C11.1043268,9.47958772 11.9473352,8.93904386 12.7270648,9.10732456 C13.9503549,9.37142105 24.5334423,11.2162368 25.9932169,10.8933772 C28.0815211,10.4314737 33.9931268,7.09799123 35.126569,6.06186842 C36.883369,4.45557895 35.5177014,2.75974561 34.0461634,3.53254386 Z" id="Path"></path>
                            <path d="M7.54742535,0.553859649 L2.00322254,0.293912281 C1.57517746,0.273842105 1.13800563,0.580780702 1.03162817,0.975719298 L0.0235267606,9.68453509 C-0.0827492958,10.0795702 0.180709859,10.4157456 0.608957746,10.4314737 L6.75329577,10.4308947 C7.18164507,10.4466228 7.55868169,10.1268509 7.59153803,9.72023684 L8.26630986,1.32955263 C8.29896338,0.923035088 7.97547042,0.573929825 7.54742535,0.553859649 Z M4.28349296,9.27714912 C3.4368338,9.27714912 2.75060282,8.62409649 2.75060282,7.81858772 C2.75060282,7.01298246 3.43693521,6.36002632 4.28349296,6.36002632 C5.1300507,6.36002632 5.8163831,7.01307895 5.8163831,7.81858772 C5.8163831,8.62419298 5.13015211,9.27714912 4.28349296,9.27714912 Z" id="Shape"></path>
                        </g>
                    </g>
                </g>
            </g>
        </g>
    </g>
</svg>