<svg xmlns="http://www.w3.org/2000/svg" width="17" height="17" viewBox="0 0 17 17"><g><g><path fill="#039f67" d="M16.964 13.172c-.048-.145-.354-.358-.918-.64a28.13 28.13 0 0 0-.651-.362 60.726 60.726 0 0 1-.767-.423c-.23-.129-.445-.253-.646-.374a15.863 15.863 0 0 0-.302-.211 3.395 3.395 0 0 0-.429-.26.79.79 0 0 0-.344-.084c-.161 0-.362.114-.603.344-.242.23-.463.478-.664.748a7.28 7.28 0 0 1-.64.749c-.226.23-.41.344-.556.344a.821.821 0 0 1-.271-.06 2.816 2.816 0 0 1-.248-.103 4.515 4.515 0 0 1-.29-.169 7.435 7.435 0 0 0-.23-.139c-1.102-.612-2.048-1.312-2.837-2.1-.788-.79-1.489-1.735-2.1-2.838a6.992 6.992 0 0 0-.14-.23 4.352 4.352 0 0 1-.169-.29 2.616 2.616 0 0 1-.102-.247.817.817 0 0 1-.06-.271c0-.145.114-.33.344-.556.23-.225.479-.439.748-.64.27-.2.52-.422.749-.664.23-.241.344-.442.344-.603a.788.788 0 0 0-.084-.344 3.357 3.357 0 0 0-.26-.429c-.117-.169-.187-.27-.212-.302-.12-.2-.245-.416-.374-.646-.129-.229-.27-.485-.422-.766a28.692 28.692 0 0 0-.363-.652c-.281-.564-.494-.87-.64-.918A.676.676 0 0 0 3.575 0c-.217 0-.501.04-.851.12-.35.081-.626.166-.827.254-.403.17-.83.66-1.28 1.473C.206 2.604 0 3.352 0 4.093c0 .217.014.428.042.634.028.205.079.436.151.694.073.257.131.449.175.573.044.125.127.348.248.67.12.322.193.52.217.592.282.789.616 1.493 1.002 2.113.636 1.03 1.503 2.095 2.602 3.193 1.099 1.1 2.163 1.966 3.194 2.602.62.387 1.324.72 2.113 1.002.072.025.27.097.591.218.322.12.546.203.67.247.125.045.316.103.574.176.258.072.489.123.694.15.205.029.417.043.634.043.74 0 1.49-.205 2.246-.616.813-.45 1.304-.877 1.473-1.28.088-.2.173-.477.253-.827.08-.35.121-.633.121-.85a.673.673 0 0 0-.036-.255z"/></g></g></svg>