<?xml version="1.0" encoding="UTF-8"?>
<svg width="55px" height="55px" viewBox="0 0 55 55" version="1.1" xmlns="http://www.w3.org/2000/svg" xmlns:xlink="http://www.w3.org/1999/xlink">
    <!-- Generator: Sketch 60.1 (88133) - https://sketch.com -->
    <title>Group 10</title>
    <desc>Created with Sketch.</desc>
    <g id="Page-1" stroke="none" stroke-width="1" fill="none" fill-rule="evenodd">
        <g id="lawhq-homepage-copy" transform="translate(-313.000000, -3215.000000)">
            <g id="Group-11-Copy-2" transform="translate(313.000000, 3215.000000)">
                <g id="Group-10">
                    <rect id="Rectangle" fill="#FFEED2" x="0" y="0" width="55" height="55" rx="10"></rect>
                    <g id="voicemail" transform="translate(12.000000, 21.000000)" fill="#FFB033" fill-rule="nonzero">
                        <path d="M23.8958333,0 C20.0208333,0 16.7916667,3.18181818 16.7916667,7 C16.7916667,8.65454545 17.4375,10.1818182 18.4708333,11.4545455 L12.5291667,11.4545455 C13.5625,10.1818182 14.2083333,8.65454545 14.2083333,7 C14.2083333,3.18181818 10.9791667,0 7.10416667,0 C3.22916667,0 0,3.18181818 0,7 C0,10.8181818 3.22916667,14 7.10416667,14 L23.8958333,14 C27.7708333,14 31,10.8181818 31,7 C31,3.18181818 27.7708333,0 23.8958333,0 Z M7.10416667,11.4545455 C4.65,11.4545455 2.58333333,9.41818182 2.58333333,7 C2.58333333,4.58181818 4.65,2.54545455 7.10416667,2.54545455 C9.55833333,2.54545455 11.625,4.58181818 11.625,7 C11.625,9.41818182 9.55833333,11.4545455 7.10416667,11.4545455 Z M23.8958333,11.4545455 C21.4416667,11.4545455 19.375,9.41818182 19.375,7 C19.375,4.58181818 21.4416667,2.54545455 23.8958333,2.54545455 C26.35,2.54545455 28.4166667,4.58181818 28.4166667,7 C28.4166667,9.41818182 26.35,11.4545455 23.8958333,11.4545455 Z" id="Shape"></path>
                    </g>
                </g>
            </g>
        </g>
    </g>
</svg>